<svg width="1200" height="720" viewBox="0 0 1200 720" fill="none" xmlns="http://www.w3.org/2000/svg" role="img" aria-label="Mapa simplificado de Santa Catarina">
  <title>Mapa do estado de Santa Catarina</title>
  <rect width="1200" height="720" fill="#E9EEF3"/>
  <path d="M66 306L130 274L206 266L310 232L392 236L456 220L502 206L542 208L616 220L680 240L744 246L834 250L918 262L1002 302L1088 318L1126 344L1134 378L1116 406L1032 438L964 466L892 470L792 482L708 490L640 508L550 504L476 512L420 526L360 534L302 544L246 552L198 536L148 522L112 492L82 452L70 414Z" fill="#D5E7DB" stroke="#7FA488" stroke-width="8" stroke-linejoin="round"/>
  <path d="M134 282L204 274L290 246L362 248L438 232L496 220L540 222L604 234L670 252L736 260L834 262L912 276L988 310L1066 330L1098 350L1090 380L1020 410L950 436L864 442L766 456L684 462L612 476L538 472L468 482L402 496L344 502L288 512L236 520L188 506L148 492L116 464L98 430L94 398Z" fill="#B5D9BF" stroke="#7FA488" stroke-width="6" stroke-linejoin="round"/>
  <path d="M192 312C206 298 250 288 292 284C348 278 410 262 468 254C512 248 548 248 596 258C650 270 724 298 790 304C842 310 880 308 934 316C980 322 1034 344 1038 366C1042 394 994 414 936 426C878 440 802 444 744 450C670 460 610 472 546 466C494 460 442 472 390 480C322 492 248 512 210 488C178 468 172 338 192 312Z" fill="#9CCFA7" stroke="#7FA488" stroke-width="4" stroke-linejoin="round"/>
</svg>
